# Blender v3.0.1 OBJ File: 'coin.blend'
# www.blender.org
o Cylinder
v -0.000000 0.010000 -0.836421
v -0.000000 0.190000 -0.836421
v 0.163178 0.010000 -0.820350
v 0.163178 0.190000 -0.820350
v 0.320085 0.010000 -0.772752
v 0.320085 0.190000 -0.772752
v 0.464691 0.010000 -0.695459
v 0.464691 0.190000 -0.695459
v 0.591439 0.010000 -0.591439
v 0.591439 0.190000 -0.591439
v 0.695459 0.010000 -0.464691
v 0.695459 0.190000 -0.464691
v 0.772752 0.010000 -0.320085
v 0.772752 0.190000 -0.320085
v 0.820350 0.010000 -0.163178
v 0.820350 0.190000 -0.163178
v 0.836421 0.010000 0.000000
v 0.836421 0.190000 0.000000
v 0.820350 0.010000 0.163178
v 0.820350 0.190000 0.163178
v 0.772753 0.010000 0.320085
v 0.772753 0.190000 0.320085
v 0.695459 0.010000 0.464691
v 0.695459 0.190000 0.464691
v 0.591439 0.010000 0.591439
v 0.591439 0.190000 0.591439
v 0.464691 0.010000 0.695459
v 0.464691 0.190000 0.695459
v 0.320085 0.010000 0.772752
v 0.320085 0.190000 0.772752
v 0.163178 0.010000 0.820350
v 0.163178 0.190000 0.820350
v -0.000000 0.010000 0.836421
v -0.000000 0.190000 0.836421
v -0.163178 0.010000 0.820350
v -0.163178 0.190000 0.820350
v -0.320085 0.010000 0.772752
v -0.320085 0.190000 0.772752
v -0.464691 0.010000 0.695459
v -0.464691 0.190000 0.695459
v -0.591439 0.010000 0.591439
v -0.591439 0.190000 0.591439
v -0.695459 0.010000 0.464691
v -0.695459 0.190000 0.464691
v -0.772752 0.010000 0.320085
v -0.772752 0.190000 0.320085
v -0.820350 0.010000 0.163178
v -0.820350 0.190000 0.163178
v -0.836421 0.010000 -0.000000
v -0.836421 0.190000 -0.000000
v -0.820350 0.010000 -0.163178
v -0.820350 0.190000 -0.163178
v -0.772752 0.010000 -0.320085
v -0.772752 0.190000 -0.320085
v -0.695459 0.010000 -0.464691
v -0.695459 0.190000 -0.464691
v -0.591439 0.010000 -0.591439
v -0.591439 0.190000 -0.591439
v -0.464691 0.010000 -0.695459
v -0.464691 0.190000 -0.695459
v -0.320085 0.010000 -0.772753
v -0.320085 0.190000 -0.772753
v -0.163178 0.010000 -0.820350
v -0.163178 0.190000 -0.820350
v 0.000000 0.000000 -1.000000
v 0.195090 0.000000 -0.980785
v 0.195090 0.200000 -0.980785
v 0.000000 0.200000 -1.000000
v 0.382683 0.000000 -0.923880
v 0.382683 0.200000 -0.923880
v 0.555570 0.000000 -0.831470
v 0.555570 0.200000 -0.831470
v 0.707107 0.000000 -0.707107
v 0.707107 0.200000 -0.707107
v 0.831470 0.000000 -0.555570
v 0.831470 0.200000 -0.555570
v 0.923880 0.000000 -0.382683
v 0.923880 0.200000 -0.382683
v 0.980785 0.000000 -0.195090
v 0.980785 0.200000 -0.195090
v 1.000000 0.000000 0.000000
v 1.000000 0.200000 0.000000
v 0.980785 0.000000 0.195090
v 0.980785 0.200000 0.195090
v 0.923880 0.000000 0.382683
v 0.923880 0.200000 0.382683
v 0.831470 0.000000 0.555570
v 0.831470 0.200000 0.555570
v 0.707107 0.000000 0.707107
v 0.707107 0.200000 0.707107
v 0.555570 0.000000 0.831470
v 0.555570 0.200000 0.831470
v 0.382683 0.000000 0.923880
v 0.382683 0.200000 0.923880
v 0.195090 0.000000 0.980785
v 0.195090 0.200000 0.980785
v -0.000000 0.000000 1.000000
v -0.000000 0.200000 1.000000
v -0.195090 0.000000 0.980785
v -0.195090 0.200000 0.980785
v -0.382683 0.000000 0.923880
v -0.382683 0.200000 0.923880
v -0.555570 0.000000 0.831470
v -0.555570 0.200000 0.831470
v -0.707107 0.000000 0.707107
v -0.707107 0.200000 0.707107
v -0.831469 0.000000 0.555570
v -0.831469 0.200000 0.555570
v -0.923880 0.000000 0.382684
v -0.923880 0.200000 0.382684
v -0.980785 0.000000 0.195090
v -0.980785 0.200000 0.195090
v -1.000000 0.000000 -0.000000
v -1.000000 0.200000 -0.000000
v -0.980785 0.000000 -0.195090
v -0.980785 0.200000 -0.195090
v -0.923879 0.000000 -0.382684
v -0.923879 0.200000 -0.382684
v -0.831470 0.000000 -0.555570
v -0.831470 0.200000 -0.555570
v -0.707107 0.000000 -0.707107
v -0.707107 0.200000 -0.707107
v -0.555570 0.000000 -0.831470
v -0.555570 0.200000 -0.831470
v -0.382683 0.000000 -0.923880
v -0.382683 0.200000 -0.923880
v -0.195090 0.000000 -0.980785
v -0.195090 0.200000 -0.980785
vt 0.184761 0.654312
vt 0.153384 0.684676
vt 0.153338 0.653857
vt 0.184807 0.685131
vt 0.153430 0.715495
vt 0.184853 0.715951
vt 0.153474 0.746315
vt 0.184899 0.746771
vt 0.153517 0.777135
vt 0.184944 0.777593
vt 0.153554 0.807957
vt 0.184988 0.808422
vt 0.153575 0.838788
vt 0.185031 0.839267
vt 0.153558 0.869643
vt 0.185073 0.870158
vt 0.153440 0.900579
vt 0.185123 0.901178
vt 0.153062 0.931774
vt 0.185222 0.932554
vt 0.152011 0.963822
vt 0.185546 0.964909
vt 0.149098 0.998987
vt 0.188540 0.001013
vt 0.152095 0.035089
vt 0.150739 0.000088
vt 0.185628 0.036176
vt 0.152418 0.067443
vt 0.184576 0.068223
vt 0.152517 0.098817
vt 0.184199 0.099415
vt 0.152567 0.129835
vt 0.184080 0.130350
vt 0.152609 0.160725
vt 0.184063 0.161204
vt 0.152652 0.191568
vt 0.184085 0.192033
vt 0.152696 0.222395
vt 0.184121 0.222854
vt 0.152741 0.253216
vt 0.184164 0.253672
vt 0.152787 0.284035
vt 0.184209 0.284490
vt 0.152833 0.314853
vt 0.184254 0.315308
vt 0.152879 0.345671
vt 0.184300 0.346126
vt 0.152924 0.376490
vt 0.184346 0.376944
vt 0.152970 0.407308
vt 0.184392 0.407762
vt 0.153016 0.438126
vt 0.184438 0.438581
vt 0.153062 0.468945
vt 0.184484 0.469399
vt 0.153108 0.499763
vt 0.184531 0.500218
vt 0.153154 0.530582
vt 0.184577 0.531036
vt 0.153200 0.561401
vt 0.184623 0.561855
vt 0.153246 0.592219
vt 0.994987 0.273205
vt 0.908052 0.435848
vt 0.568932 0.402447
vt 0.184669 0.592674
vt 0.153292 0.623038
vt 0.184715 0.623493
vt 0.731615 0.513281
vt 0.994578 0.729089
vt 0.778770 0.992053
vt 0.124815 0.653752
vt 0.124861 0.684571
vt 0.213331 0.685237
vt 0.213284 0.654417
vt 0.124907 0.715389
vt 0.124952 0.746208
vt 0.213424 0.746876
vt 0.213377 0.716056
vt 0.124996 0.777025
vt 0.125037 0.807840
vt 0.213523 0.808520
vt 0.213472 0.777696
vt 0.125066 0.838649
vt 0.213585 0.839350
vt 0.125063 0.869444
vt 0.213676 0.870196
vt 0.124964 0.900211
vt 0.124575 0.930920
vt 0.213851 0.901080
vt 0.123300 0.961532
vt 0.215372 0.963200
vt 0.214267 0.932050
vt 0.119228 0.991961
vt 0.218408 0.994645
vt 0.119233 0.005354
vt 0.122269 0.036798
vt 0.214337 0.038466
vt 0.218408 0.008039
vt 0.123374 0.067947
vt 0.213062 0.069076
vt 0.123791 0.098915
vt 0.212673 0.099784
vt 0.123966 0.129797
vt 0.212573 0.130549
vt 0.124057 0.160642
vt 0.124118 0.191470
vt 0.212600 0.192150
vt 0.212571 0.161343
vt 0.124170 0.222292
vt 0.124218 0.253111
vt 0.212641 0.222963
vt 0.124264 0.283930
vt 0.212685 0.253779
vt 0.124310 0.314748
vt 0.212776 0.315414
vt 0.212730 0.284596
vt 0.124356 0.345566
vt 0.212823 0.346232
vt 0.124402 0.376384
vt 0.212869 0.377050
vt 0.124448 0.407202
vt 0.124494 0.438020
vt 0.212961 0.438686
vt 0.212915 0.407868
vt 0.124539 0.468839
vt 0.213007 0.469505
vt 0.124585 0.499657
vt 0.213054 0.500323
vt 0.124631 0.530476
vt 0.124677 0.561295
vt 0.213146 0.561961
vt 0.213100 0.531142
vt 0.124723 0.592114
vt 0.213192 0.592780
vt 0.124769 0.622933
vt 0.213238 0.623598
vt 0.186901 0.999913
vt 0.542689 0.363172
vt 0.515398 0.225969
vt 0.524613 0.319532
vt 0.515398 0.273205
vt 0.524613 0.179641
vt 0.542690 0.136001
vt 0.568932 0.096727
vt 0.602333 0.063326
vt 0.641608 0.037084
vt 0.685247 0.019008
vt 0.731575 0.009793
vt 0.778810 0.009793
vt 0.825138 0.019008
vt 0.868778 0.037084
vt 0.908052 0.063326
vt 0.941453 0.096727
vt 0.967695 0.136002
vt 0.985772 0.179642
vt 0.994987 0.225969
vt 0.985772 0.319532
vt 0.967695 0.363172
vt 0.941453 0.402447
vt 0.868777 0.462090
vt 0.825138 0.480166
vt 0.778810 0.489381
vt 0.731575 0.489381
vt 0.685247 0.480166
vt 0.641607 0.462090
vt 0.602332 0.435847
vt 0.515806 0.776245
vt 0.515806 0.729089
vt 0.525006 0.682841
vt 0.543051 0.639276
vt 0.569249 0.600067
vt 0.602593 0.566724
vt 0.641800 0.540526
vt 0.685366 0.522480
vt 0.778770 0.513281
vt 0.825019 0.522480
vt 0.868584 0.540526
vt 0.907792 0.566724
vt 0.941136 0.600067
vt 0.967334 0.639275
vt 0.985379 0.682841
vt 0.994578 0.776245
vt 0.941136 0.905267
vt 0.985379 0.822493
vt 0.967333 0.866059
vt 0.907792 0.938610
vt 0.868584 0.964808
vt 0.825020 0.982854
vt 0.731615 0.992053
vt 0.685366 0.982854
vt 0.641800 0.964808
vt 0.602593 0.938610
vt 0.569249 0.905267
vt 0.543051 0.866059
vt 0.525006 0.822494
vn 0.0980 0.0000 -0.9952
vn 0.2903 0.0000 -0.9569
vn 0.4714 0.0000 -0.8819
vn 0.6344 0.0000 -0.7730
vn 0.7730 0.0000 -0.6344
vn 0.8819 0.0000 -0.4714
vn 0.9569 0.0000 -0.2903
vn 0.9952 0.0000 -0.0980
vn 0.9952 0.0000 0.0980
vn 0.9569 0.0000 0.2903
vn 0.8819 0.0000 0.4714
vn 0.7730 0.0000 0.6344
vn 0.6344 0.0000 0.7730
vn 0.4714 0.0000 0.8819
vn 0.2903 0.0000 0.9569
vn 0.0980 0.0000 0.9952
vn -0.0980 0.0000 0.9952
vn -0.2903 0.0000 0.9569
vn -0.4714 0.0000 0.8819
vn -0.6344 0.0000 0.7730
vn -0.7730 0.0000 0.6344
vn -0.8819 0.0000 0.4714
vn -0.9569 0.0000 0.2903
vn -0.9952 0.0000 0.0980
vn -0.9952 0.0000 -0.0980
vn -0.9569 0.0000 -0.2903
vn -0.8819 0.0000 -0.4714
vn -0.7730 0.0000 -0.6344
vn -0.6344 0.0000 -0.7730
vn -0.4714 0.0000 -0.8819
vn 0.0000 1.0000 0.0000
vn -0.2903 0.0000 -0.9569
vn -0.0980 0.0000 -0.9952
vn 0.0000 -1.0000 0.0000
vn -0.0060 -0.9981 0.0610
vn -0.0060 0.9981 0.0610
vn -0.0178 -0.9981 0.0587
vn -0.0178 0.9981 0.0587
vn -0.0289 -0.9981 0.0541
vn -0.0289 0.9981 0.0541
vn -0.0389 -0.9981 0.0474
vn -0.0389 0.9981 0.0474
vn -0.0474 -0.9981 0.0389
vn -0.0474 0.9981 0.0389
vn -0.0541 -0.9981 0.0289
vn -0.0541 0.9981 0.0289
vn -0.0587 -0.9981 0.0178
vn -0.0587 0.9981 0.0178
vn -0.0610 -0.9981 0.0060
vn -0.0610 0.9981 0.0060
vn -0.0610 -0.9981 -0.0060
vn -0.0610 0.9981 -0.0060
vn -0.0587 -0.9981 -0.0178
vn -0.0587 0.9981 -0.0178
vn -0.0541 -0.9981 -0.0289
vn -0.0541 0.9981 -0.0289
vn -0.0474 -0.9981 -0.0389
vn -0.0474 0.9981 -0.0389
vn -0.0389 -0.9981 -0.0474
vn -0.0389 0.9981 -0.0474
vn -0.0289 -0.9981 -0.0541
vn -0.0289 0.9981 -0.0541
vn -0.0178 -0.9981 -0.0587
vn -0.0178 0.9981 -0.0587
vn -0.0060 -0.9981 -0.0610
vn -0.0060 0.9981 -0.0610
vn 0.0060 -0.9981 -0.0610
vn 0.0060 0.9981 -0.0610
vn 0.0178 -0.9981 -0.0587
vn 0.0178 0.9981 -0.0587
vn 0.0289 -0.9981 -0.0541
vn 0.0289 0.9981 -0.0541
vn 0.0389 -0.9981 -0.0474
vn 0.0389 0.9981 -0.0474
vn 0.0474 -0.9981 -0.0389
vn 0.0474 0.9981 -0.0389
vn 0.0541 -0.9981 -0.0289
vn 0.0541 0.9981 -0.0289
vn 0.0587 -0.9981 -0.0178
vn 0.0587 0.9981 -0.0178
vn 0.0610 -0.9981 -0.0060
vn 0.0610 0.9981 -0.0060
vn 0.0610 -0.9981 0.0060
vn 0.0610 0.9981 0.0060
vn 0.0587 -0.9981 0.0178
vn 0.0587 0.9981 0.0178
vn 0.0541 -0.9981 0.0289
vn 0.0541 0.9981 0.0289
vn 0.0474 -0.9981 0.0389
vn 0.0474 0.9981 0.0389
vn 0.0389 -0.9981 0.0474
vn 0.0389 0.9981 0.0474
vn 0.0289 -0.9981 0.0541
vn 0.0289 0.9981 0.0541
vn 0.0178 -0.9981 0.0587
vn 0.0178 0.9981 0.0587
vn 0.0060 -0.9981 0.0610
vn 0.0060 0.9981 0.0610
s off
f 68/1/1 66/2/1 65/3/1
f 67/4/2 69/5/2 66/2/2
f 70/6/3 71/7/3 69/5/3
f 72/8/4 73/9/4 71/7/4
f 74/10/5 75/11/5 73/9/5
f 76/12/6 77/13/6 75/11/6
f 78/14/7 79/15/7 77/13/7
f 80/16/8 81/17/8 79/15/8
f 82/18/9 83/19/9 81/17/9
f 84/20/10 85/21/10 83/19/10
f 86/22/11 87/23/11 85/21/11
f 88/24/12 89/25/12 87/26/12
f 90/27/13 91/28/13 89/25/13
f 92/29/14 93/30/14 91/28/14
f 94/31/15 95/32/15 93/30/15
f 96/33/16 97/34/16 95/32/16
f 98/35/17 99/36/17 97/34/17
f 100/37/18 101/38/18 99/36/18
f 102/39/19 103/40/19 101/38/19
f 104/41/20 105/42/20 103/40/20
f 106/43/21 107/44/21 105/42/21
f 108/45/22 109/46/22 107/44/22
f 110/47/23 111/48/23 109/46/23
f 112/49/24 113/50/24 111/48/24
f 114/51/25 115/52/25 113/50/25
f 116/53/26 117/54/26 115/52/26
f 118/55/27 119/56/27 117/54/27
f 120/57/28 121/58/28 119/56/28
f 122/59/29 123/60/29 121/58/29
f 124/61/30 125/62/30 123/60/30
f 30/63/31 22/64/31 6/65/31
f 126/66/32 127/67/32 125/62/32
f 128/68/33 65/3/33 127/67/33
f 15/69/34 31/70/34 47/71/34
f 1/72/35 66/2/35 3/73/35
f 4/74/36 68/1/36 2/75/36
f 3/73/37 69/5/37 5/76/37
f 4/74/38 70/6/38 67/4/38
f 5/76/39 71/7/39 7/77/39
f 8/78/40 70/6/40 6/79/40
f 9/80/41 71/7/41 73/9/41
f 8/78/42 74/10/42 72/8/42
f 9/80/43 75/11/43 11/81/43
f 12/82/44 74/10/44 10/83/44
f 11/81/45 77/13/45 13/84/45
f 14/85/46 76/12/46 12/82/46
f 15/86/47 77/13/47 79/15/47
f 16/87/48 78/14/48 14/85/48
f 15/86/49 81/17/49 17/88/49
f 16/87/50 82/18/50 80/16/50
f 17/88/51 83/19/51 19/89/51
f 18/90/52 84/20/52 82/18/52
f 21/91/53 83/19/53 85/21/53
f 22/92/54 84/20/54 20/93/54
f 21/91/55 87/23/55 23/94/55
f 24/95/56 86/22/56 22/92/56
f 23/96/57 89/25/57 25/97/57
f 26/98/58 88/24/58 24/99/58
f 27/100/59 89/25/59 91/28/59
f 28/101/60 90/27/60 26/98/60
f 29/102/61 91/28/61 93/30/61
f 30/103/62 92/29/62 28/101/62
f 31/104/63 93/30/63 95/32/63
f 32/105/64 94/31/64 30/103/64
f 31/104/65 97/34/65 33/106/65
f 32/105/66 98/35/66 96/33/66
f 35/107/67 97/34/67 99/36/67
f 36/108/68 98/35/68 34/109/68
f 37/110/69 99/36/69 101/38/69
f 36/108/70 102/39/70 100/37/70
f 37/110/71 103/40/71 39/111/71
f 38/112/72 104/41/72 102/39/72
f 39/111/73 105/42/73 41/113/73
f 40/114/74 106/43/74 104/41/74
f 41/113/75 107/44/75 43/115/75
f 44/116/76 106/43/76 42/117/76
f 43/115/77 109/46/77 45/118/77
f 46/119/78 108/45/78 44/116/78
f 45/118/79 111/48/79 47/120/79
f 48/121/80 110/47/80 46/119/80
f 47/120/81 113/50/81 49/122/81
f 48/121/82 114/51/82 112/49/82
f 49/122/83 115/52/83 51/123/83
f 52/124/84 114/51/84 50/125/84
f 51/123/85 117/54/85 53/126/85
f 54/127/86 116/53/86 52/124/86
f 55/128/87 117/54/87 119/56/87
f 56/129/88 118/55/88 54/127/88
f 55/128/89 121/58/89 57/130/89
f 56/129/90 122/59/90 120/57/90
f 59/131/91 121/58/91 123/60/91
f 60/132/92 122/59/92 58/133/92
f 61/134/93 123/60/93 125/62/93
f 62/135/94 124/61/94 60/132/94
f 61/134/95 127/67/95 63/136/95
f 62/135/96 128/68/96 126/66/96
f 63/136/97 65/3/97 1/72/97
f 2/75/98 128/68/98 64/137/98
f 68/1/1 67/4/1 66/2/1
f 67/4/2 70/6/2 69/5/2
f 70/6/3 72/8/3 71/7/3
f 72/8/4 74/10/4 73/9/4
f 74/10/5 76/12/5 75/11/5
f 76/12/6 78/14/6 77/13/6
f 78/14/7 80/16/7 79/15/7
f 80/16/8 82/18/8 81/17/8
f 82/18/9 84/20/9 83/19/9
f 84/20/10 86/22/10 85/21/10
f 86/22/11 88/138/11 87/23/11
f 88/24/12 90/27/12 89/25/12
f 90/27/13 92/29/13 91/28/13
f 92/29/14 94/31/14 93/30/14
f 94/31/15 96/33/15 95/32/15
f 96/33/16 98/35/16 97/34/16
f 98/35/17 100/37/17 99/36/17
f 100/37/18 102/39/18 101/38/18
f 102/39/19 104/41/19 103/40/19
f 104/41/20 106/43/20 105/42/20
f 106/43/21 108/45/21 107/44/21
f 108/45/22 110/47/22 109/46/22
f 110/47/23 112/49/23 111/48/23
f 112/49/24 114/51/24 113/50/24
f 114/51/25 116/53/25 115/52/25
f 116/53/26 118/55/26 117/54/26
f 118/55/27 120/57/27 119/56/27
f 120/57/28 122/59/28 121/58/28
f 122/59/29 124/61/29 123/60/29
f 124/61/30 126/66/30 125/62/30
f 6/65/31 4/139/31 62/140/31
f 4/139/31 2/141/31 62/140/31
f 2/141/31 64/142/31 62/140/31
f 62/140/31 60/143/31 58/144/31
f 58/144/31 56/145/31 54/146/31
f 54/146/31 52/147/31 50/148/31
f 50/148/31 48/149/31 54/146/31
f 48/149/31 46/150/31 54/146/31
f 46/150/31 44/151/31 42/152/31
f 42/152/31 40/153/31 38/154/31
f 38/154/31 36/155/31 34/156/31
f 34/156/31 32/157/31 30/63/31
f 30/63/31 28/158/31 26/159/31
f 26/159/31 24/160/31 22/64/31
f 22/64/31 20/161/31 18/162/31
f 18/162/31 16/163/31 14/164/31
f 14/164/31 12/165/31 10/166/31
f 10/166/31 8/167/31 6/65/31
f 62/140/31 58/144/31 54/146/31
f 46/150/31 42/152/31 54/146/31
f 42/152/31 38/154/31 54/146/31
f 38/154/31 34/156/31 30/63/31
f 30/63/31 26/159/31 22/64/31
f 22/64/31 18/162/31 6/65/31
f 18/162/31 14/164/31 6/65/31
f 14/164/31 10/166/31 6/65/31
f 6/65/31 62/140/31 38/154/31
f 62/140/31 54/146/31 38/154/31
f 38/154/31 30/63/31 6/65/31
f 126/66/32 128/68/32 127/67/32
f 128/68/33 68/1/33 65/3/33
f 63/168/34 1/169/34 3/170/34
f 3/170/34 5/171/34 7/172/34
f 7/172/34 9/173/34 11/174/34
f 11/174/34 13/175/34 15/69/34
f 15/69/34 17/176/34 19/177/34
f 19/177/34 21/178/34 23/179/34
f 23/179/34 25/180/34 31/70/34
f 25/180/34 27/181/34 31/70/34
f 27/181/34 29/182/34 31/70/34
f 31/70/34 33/183/34 39/184/34
f 33/183/34 35/185/34 39/184/34
f 35/185/34 37/186/34 39/184/34
f 39/184/34 41/187/34 47/71/34
f 41/187/34 43/188/34 47/71/34
f 43/188/34 45/189/34 47/71/34
f 47/71/34 49/190/34 51/191/34
f 51/191/34 53/192/34 55/193/34
f 55/193/34 57/194/34 63/168/34
f 57/194/34 59/195/34 63/168/34
f 59/195/34 61/196/34 63/168/34
f 63/168/34 3/170/34 7/172/34
f 7/172/34 11/174/34 63/168/34
f 11/174/34 15/69/34 63/168/34
f 15/69/34 19/177/34 23/179/34
f 47/71/34 51/191/34 63/168/34
f 51/191/34 55/193/34 63/168/34
f 15/69/34 23/179/34 31/70/34
f 31/70/34 39/184/34 47/71/34
f 63/168/34 15/69/34 47/71/34
f 1/72/35 65/3/35 66/2/35
f 4/74/36 67/4/36 68/1/36
f 3/73/37 66/2/37 69/5/37
f 4/74/38 6/79/38 70/6/38
f 5/76/39 69/5/39 71/7/39
f 8/78/40 72/8/40 70/6/40
f 9/80/41 7/77/41 71/7/41
f 8/78/42 10/83/42 74/10/42
f 9/80/43 73/9/43 75/11/43
f 12/82/44 76/12/44 74/10/44
f 11/81/45 75/11/45 77/13/45
f 14/85/46 78/14/46 76/12/46
f 15/86/47 13/84/47 77/13/47
f 16/87/48 80/16/48 78/14/48
f 15/86/49 79/15/49 81/17/49
f 16/87/50 18/90/50 82/18/50
f 17/88/51 81/17/51 83/19/51
f 18/90/52 20/93/52 84/20/52
f 21/91/53 19/89/53 83/19/53
f 22/92/54 86/22/54 84/20/54
f 21/91/55 85/21/55 87/23/55
f 24/95/56 88/138/56 86/22/56
f 23/96/57 87/26/57 89/25/57
f 26/98/58 90/27/58 88/24/58
f 27/100/59 25/97/59 89/25/59
f 28/101/60 92/29/60 90/27/60
f 29/102/61 27/100/61 91/28/61
f 30/103/62 94/31/62 92/29/62
f 31/104/63 29/102/63 93/30/63
f 32/105/64 96/33/64 94/31/64
f 31/104/65 95/32/65 97/34/65
f 32/105/66 34/109/66 98/35/66
f 35/107/67 33/106/67 97/34/67
f 36/108/68 100/37/68 98/35/68
f 37/110/69 35/107/69 99/36/69
f 36/108/70 38/112/70 102/39/70
f 37/110/71 101/38/71 103/40/71
f 38/112/72 40/114/72 104/41/72
f 39/111/73 103/40/73 105/42/73
f 40/114/74 42/117/74 106/43/74
f 41/113/75 105/42/75 107/44/75
f 44/116/76 108/45/76 106/43/76
f 43/115/77 107/44/77 109/46/77
f 46/119/78 110/47/78 108/45/78
f 45/118/79 109/46/79 111/48/79
f 48/121/80 112/49/80 110/47/80
f 47/120/81 111/48/81 113/50/81
f 48/121/82 50/125/82 114/51/82
f 49/122/83 113/50/83 115/52/83
f 52/124/84 116/53/84 114/51/84
f 51/123/85 115/52/85 117/54/85
f 54/127/86 118/55/86 116/53/86
f 55/128/87 53/126/87 117/54/87
f 56/129/88 120/57/88 118/55/88
f 55/128/89 119/56/89 121/58/89
f 56/129/90 58/133/90 122/59/90
f 59/131/91 57/130/91 121/58/91
f 60/132/92 124/61/92 122/59/92
f 61/134/93 59/131/93 123/60/93
f 62/135/94 126/66/94 124/61/94
f 61/134/95 125/62/95 127/67/95
f 62/135/96 64/137/96 128/68/96
f 63/136/97 127/67/97 65/3/97
f 2/75/98 68/1/98 128/68/98
