# Blender v2.82 (sub 7) OBJ File: 'flyfighter.blend'
# www.blender.org
o Cube_Cube.001
v -0.200000 -0.100000 1.000000
v -0.200000 0.100000 1.000000
v -0.600000 -0.200000 -1.000000
v -0.600000 0.300000 -1.000000
v 0.200000 -0.100000 1.000000
v 0.200000 0.100000 1.000000
v 0.600000 -0.200000 -1.000000
v 0.600000 0.300000 -1.000000
v -0.600000 -0.200000 0.000000
v -0.200000 0.000000 1.000000
v -0.600000 0.300000 0.000000
v -0.600000 0.000000 -1.000000
v 0.000000 -0.200000 -1.000000
v 0.000000 0.300000 -1.000000
v 0.600000 0.000000 -1.000000
v 0.600000 -0.200000 0.000000
v 0.600000 0.300000 0.000000
v 0.200000 0.000000 1.000000
v 0.000000 -0.100000 1.000000
v 0.000000 0.100000 1.000000
v 0.000000 0.300000 0.000000
v 0.000000 -0.200000 0.000000
v 0.000000 0.000000 1.000000
v 0.600000 0.000000 0.000000
v 0.000000 0.000000 -1.000000
v -0.600000 0.000000 0.000000
v -2.000000 -0.100000 -0.300000
v -2.000000 -0.000000 -0.300000
v -2.000000 -0.100000 -0.800000
v -2.000000 0.100000 -0.800000
v -0.600000 -0.100000 -0.300000
v -0.600000 -0.000000 -0.300000
v -0.600000 -0.100000 -0.800000
v -0.600000 0.100000 -0.800000
v -2.500000 -0.100000 -0.500000
v -2.500000 -0.000000 -0.500000
v -2.500000 -0.100000 -0.800000
v -2.500000 0.100000 -0.800000
v -2.000000 -0.100000 -0.300000
v -2.000000 -0.000000 -0.300000
v -2.000000 -0.100000 -0.800000
v -2.000000 0.100000 -0.800000
v 0.600000 -0.100000 -0.300000
v 0.600000 -0.000000 -0.300000
v 0.600000 -0.100000 -0.800000
v 0.600000 0.100000 -0.800000
v 2.000000 -0.100000 -0.300000
v 2.000000 -0.000000 -0.300000
v 2.000000 -0.100000 -0.800000
v 2.000000 0.100000 -0.800000
v 2.000000 -0.100000 -0.300000
v 2.000000 -0.000000 -0.300000
v 2.000000 -0.100000 -0.800000
v 2.000000 0.100000 -0.800000
v 2.500000 -0.100000 -0.500000
v 2.500000 -0.000000 -0.500000
v 2.500000 -0.100000 -0.800000
v 2.500000 0.100000 -0.800000
vt 0.625000 0.125000
vt 0.500000 0.250000
vt 0.500000 0.125000
vt 0.625000 0.375000
vt 0.500000 0.500000
vt 0.500000 0.375000
vt 0.500000 0.625000
vt 0.625000 0.750000
vt 0.500000 0.750000
vt 0.625000 0.875000
vt 0.500000 1.000000
vt 0.500000 0.875000
vt 0.250000 0.625000
vt 0.375000 0.750000
vt 0.250000 0.750000
vt 0.750000 0.625000
vt 0.875000 0.750000
vt 0.750000 0.750000
vt 0.625000 0.625000
vt 0.750000 0.500000
vt 0.625000 0.500000
vt 0.875000 0.500000
vt 0.125000 0.750000
vt 0.125000 0.625000
vt 0.250000 0.500000
vt 0.125000 0.500000
vt 0.375000 0.500000
vt 0.375000 1.000000
vt 0.375000 0.875000
vt 0.375000 0.625000
vt 0.375000 0.375000
vt 0.375000 0.250000
vt 0.625000 0.250000
vt 0.375000 0.125000
vt 0.375000 0.000000
vt 0.625000 0.000000
vt 0.500000 0.000000
vt 0.625000 0.000000
vt 0.375000 0.250000
vt 0.375000 0.000000
vt 0.625000 0.250000
vt 0.375000 0.500000
vt 0.625000 0.750000
vt 0.375000 0.750000
vt 0.375000 1.000000
vt 0.125000 0.750000
vt 0.125000 0.500000
vt 0.875000 0.500000
vt 0.625000 0.500000
vt 0.625000 0.000000
vt 0.375000 0.250000
vt 0.375000 0.000000
vt 0.625000 0.250000
vt 0.375000 0.500000
vt 0.625000 0.750000
vt 0.375000 0.750000
vt 0.375000 1.000000
vt 0.125000 0.750000
vt 0.125000 0.500000
vt 0.625000 0.500000
vt 0.875000 0.750000
vt 0.625000 0.000000
vt 0.375000 0.250000
vt 0.375000 0.000000
vt 0.625000 0.250000
vt 0.375000 0.500000
vt 0.625000 0.750000
vt 0.375000 0.750000
vt 0.375000 1.000000
vt 0.125000 0.750000
vt 0.125000 0.500000
vt 0.875000 0.500000
vt 0.625000 0.500000
vt 0.625000 0.000000
vt 0.375000 0.250000
vt 0.375000 0.000000
vt 0.625000 0.250000
vt 0.375000 0.500000
vt 0.625000 0.750000
vt 0.375000 0.750000
vt 0.375000 1.000000
vt 0.125000 0.500000
vt 0.125000 0.750000
vt 0.875000 0.500000
vt 0.625000 0.500000
vt 0.625000 1.000000
vt 0.875000 0.625000
vt 0.625000 1.000000
vt 0.875000 0.750000
vt 0.625000 1.000000
vt 0.875000 0.500000
vt 0.625000 1.000000
vt 0.875000 0.750000
vt 0.625000 1.000000
vt 0.875000 0.750000
vn -1.0000 0.0000 0.0000
vn 0.0000 0.0000 -1.0000
vn 0.9285 0.0000 0.3714
vn 0.0000 0.0000 1.0000
vn 0.0000 -0.9950 0.0995
vn 0.0000 0.9806 0.1961
vn 0.0000 1.0000 0.0000
vn 0.0000 -1.0000 0.0000
vn 1.0000 0.0000 0.0000
vn -0.9285 0.0000 0.3714
vn -0.3714 0.0000 0.9285
vn -0.0782 0.9776 0.1955
vn 0.3714 0.0000 0.9285
vn 0.0000 0.9487 0.3162
vn 0.0782 0.9776 0.1955
s off
f 11/1/1 12/2/1 26/3/1
f 14/4/2 15/5/2 25/6/2
f 24/7/3 6/8/3 18/9/3
f 20/10/4 10/11/4 23/12/4
f 22/13/5 5/14/5 19/15/5
f 21/16/6 2/17/6 20/18/6
f 21/16/6 6/8/6 17/19/6
f 14/20/7 17/19/7 8/21/7
f 4/22/7 21/16/7 14/20/7
f 22/13/5 1/23/5 9/24/5
f 13/25/8 9/24/8 3/26/8
f 7/27/8 22/13/8 13/25/8
f 23/12/4 1/28/4 19/29/4
f 18/9/4 19/29/4 5/14/4
f 6/8/4 23/12/4 18/9/4
f 24/7/3 5/14/3 16/30/3
f 15/5/9 16/30/9 7/27/9
f 8/21/9 24/7/9 15/5/9
f 25/6/2 7/27/2 13/31/2
f 12/2/2 13/31/2 3/32/2
f 4/33/2 25/6/2 12/2/2
f 26/3/1 3/32/1 9/34/1
f 1/35/10 26/3/10 9/34/10
f 2/36/10 26/3/10 10/37/10
f 28/38/1 29/39/1 27/40/1
f 30/41/2 33/42/2 29/39/2
f 33/42/9 32/43/9 31/44/9
f 32/43/4 27/45/4 31/44/4
f 33/42/8 27/46/8 29/47/8
f 30/48/6 32/43/6 34/49/6
f 36/50/1 37/51/1 35/52/1
f 38/53/2 41/54/2 37/51/2
f 41/54/9 40/55/9 39/56/9
f 40/55/11 35/57/11 39/56/11
f 41/54/8 35/58/8 37/59/8
f 42/60/12 36/61/12 40/55/12
f 44/62/1 45/63/1 43/64/1
f 46/65/2 49/66/2 45/63/2
f 49/66/9 48/67/9 47/68/9
f 48/67/4 43/69/4 47/68/4
f 49/66/8 43/70/8 45/71/8
f 46/72/6 48/67/6 50/73/6
f 52/74/1 53/75/1 51/76/1
f 54/77/2 57/78/2 53/75/2
f 57/78/9 56/79/9 55/80/9
f 56/79/13 51/81/13 55/80/13
f 53/82/8 55/80/8 51/83/8
f 54/84/14 56/79/14 58/85/14
f 11/1/1 4/33/1 12/2/1
f 14/4/2 8/21/2 15/5/2
f 24/7/3 17/19/3 6/8/3
f 20/10/4 2/86/4 10/11/4
f 22/13/5 16/30/5 5/14/5
f 21/16/6 11/87/6 2/17/6
f 21/16/6 20/18/6 6/8/6
f 14/20/7 21/16/7 17/19/7
f 4/22/7 11/87/7 21/16/7
f 22/13/5 19/15/5 1/23/5
f 13/25/8 22/13/8 9/24/8
f 7/27/8 16/30/8 22/13/8
f 23/12/4 10/11/4 1/28/4
f 18/9/4 23/12/4 19/29/4
f 6/8/4 20/10/4 23/12/4
f 24/7/3 18/9/3 5/14/3
f 15/5/9 24/7/9 16/30/9
f 8/21/9 17/19/9 24/7/9
f 25/6/2 15/5/2 7/27/2
f 12/2/2 25/6/2 13/31/2
f 4/33/2 14/4/2 25/6/2
f 26/3/1 12/2/1 3/32/1
f 1/35/10 10/37/10 26/3/10
f 2/36/10 11/1/10 26/3/10
f 28/38/1 30/41/1 29/39/1
f 30/41/2 34/49/2 33/42/2
f 33/42/9 34/49/9 32/43/9
f 32/43/4 28/88/4 27/45/4
f 33/42/8 31/44/8 27/46/8
f 30/48/6 28/89/6 32/43/6
f 36/50/1 38/53/1 37/51/1
f 38/53/2 42/60/2 41/54/2
f 41/54/9 42/60/9 40/55/9
f 40/55/11 36/90/11 35/57/11
f 41/54/8 39/56/8 35/58/8
f 42/60/14 38/91/14 36/61/14
f 44/62/1 46/65/1 45/63/1
f 46/65/2 50/73/2 49/66/2
f 49/66/9 50/73/9 48/67/9
f 48/67/4 44/92/4 43/69/4
f 49/66/8 47/68/8 43/70/8
f 46/72/6 44/93/6 48/67/6
f 52/74/1 54/77/1 53/75/1
f 54/77/2 58/85/2 57/78/2
f 57/78/9 58/85/9 56/79/9
f 56/79/13 52/94/13 51/81/13
f 53/82/8 57/78/8 55/80/8
f 54/84/15 52/95/15 56/79/15
